<svg width="68" height="68" viewBox="0 0 68 68" fill="none" xmlns="http://www.w3.org/2000/svg">
<circle cx="34" cy="34" r="34" fill="#EDF9FE"/>
<circle cx="33.5" cy="30.5" r="12.5" stroke="#26B8F4" stroke-width="2"/>
<path d="M27.0254 31.0929C27.2585 33.6272 28.9776 35.8955 31.5581 36.7033M28.5191 26.3212C30.1557 24.3722 32.8614 23.4892 35.4419 24.297C38.0223 25.1048 39.7415 27.373 39.9746 29.9073" stroke="#26B8F4" stroke-width="2" stroke-linecap="round"/>
<path d="M27.4467 37.9678L30.9979 45.6621C32.2184 48.3065 34.8651 50 37.7777 50C41.8048 50 45.1065 46.8066 45.2406 42.7817L45.4734 35.7967C45.4904 35.2884 45.2959 34.7959 44.9364 34.4364C44.3772 33.8772 43.5229 33.7385 42.8156 34.0922L42 34.5C41.25 33.5 39.75 33.5 39 34.5L38.7862 34.1437C38.172 33.12 36.7163 33.0449 36 34V30C36 28.8954 35.1046 28 34 28C32.8954 28 32 28.8954 32 30V38.1091C32 38.3945 31.6367 38.5156 31.4654 38.2872L30.0575 36.41C29.4994 35.6658 28.4115 35.5885 27.7537 36.2463C27.3009 36.6992 27.1783 37.3863 27.4467 37.9678Z" fill="#EDF9FE"/>
<path fill-rule="evenodd" clip-rule="evenodd" d="M37 32.3492C37.7553 32.2531 38.5425 32.4769 39.1341 33.0089C39.1745 33.0143 39.2142 33.0222 39.253 33.0323C40.1885 32.5836 41.3228 32.6698 42.1819 33.291L42.3684 33.1978C43.4607 32.6516 44.3081 33.0357 45.1717 33.8993C45.727 34.4545 46.0273 35.2151 46.0011 36L46 44C45.8479 48.5639 42.5664 51 38 51C34.6974 51 31.4739 49.0797 30.0899 46.0811L26.5387 38.3869C26.0948 37.425 26.2975 36.2883 27.0466 35.5392C28.1347 34.4511 29.9342 34.579 30.8575 35.81L31 36V30C31 28.3431 32.3432 27 34 27C35.6569 27 37 28.3431 37 30V32.3492ZM33 30C33 29.4477 33.4477 29 34 29C34.5523 29 35 29.4477 35 30V33.9972L35 34V36C35 36.5523 35.4477 37 36 37C36.5523 37 37 36.5523 37 36V35C37 34.5 38 34.5 38 35V36C38 36.5523 38.4477 37 39 37C39.5523 37 40 36.5523 40 36V35C40 34.5 41 34.5 41 35C41 35 41 35.1684 41 35.199V37C41 37.5523 41.4477 38 42 38C42.5523 38 43 37.5523 43 37V35C43.5 35 43.7221 35.0523 43.8688 35.199C44.0327 35.3629 44.0088 35.7684 44.0011 36V43.9334C43.8849 47.4192 41.4878 49 38 49C35.4775 49 32.9629 47.5333 31.9058 45.243L28.3546 37.5487C28.2618 37.3476 28.3042 37.11 28.4608 36.9534C28.6883 36.7259 29.0645 36.7527 29.2575 37.01L30.6654 38.8872C31.4133 39.8844 33 39.3555 33 38.1091V30Z" fill="#26B8F4"/>
</svg>
