<svg width="68" height="68" viewBox="0 0 68 68" fill="none" xmlns="http://www.w3.org/2000/svg">
<circle cx="34" cy="34" r="34" fill="#FEF3EF"/>
<path d="M23 42V37H44V42C44 42.3573 43.8377 42.7779 43.3795 43.2489C42.9168 43.7246 42.1985 44.1987 41.233 44.6185C39.3051 45.4567 36.5718 46 33.5 46C30.4282 46 27.6949 45.4567 25.767 44.6185C24.8015 44.1987 24.0832 43.7246 23.6205 43.2489C23.1623 42.7779 23 42.3573 23 42Z" fill="#FEF3EF" stroke="#FF895F" stroke-width="2"/>
<path d="M23 35.6154V30H44V35.6154C44 36.4848 43.2087 37.5803 41.2077 38.5172C39.2868 39.4167 36.5628 40 33.5 40C30.4372 40 27.7132 39.4167 25.7923 38.5172C23.7913 37.5803 23 36.4848 23 35.6154Z" fill="#FEF3EF" stroke="#FF895F" stroke-width="2"/>
<path d="M23 30V25H44V30C44 30.3573 43.8377 30.7779 43.3795 31.2489C42.9168 31.7246 42.1985 32.1987 41.233 32.6185C39.3051 33.4567 36.5718 34 33.5 34C30.4282 34 27.6949 33.4567 25.767 32.6185C24.8015 32.1987 24.0832 31.7246 23.6205 31.2489C23.1623 30.7779 23 30.3573 23 30Z" fill="#FEF3EF" stroke="#FF895F" stroke-width="2"/>
<path d="M44 24C44 24.3573 43.8377 24.7779 43.3795 25.2489C42.9168 25.7246 42.1985 26.1987 41.233 26.6185C39.3051 27.4567 36.5718 28 33.5 28C30.4282 28 27.6949 27.4567 25.767 26.6185C24.8015 26.1987 24.0832 25.7246 23.6205 25.2489C23.1623 24.7779 23 24.3573 23 24C23 23.6427 23.1623 23.2221 23.6205 22.7511C24.0832 22.2754 24.8015 21.8013 25.767 21.3815C27.6949 20.5433 30.4282 20 33.5 20C36.5718 20 39.3051 20.5433 41.233 21.3815C42.1985 21.8013 42.9168 22.2754 43.3795 22.7511C43.8377 23.2221 44 23.6427 44 24Z" fill="#FEF3EF" stroke="#FF895F" stroke-width="2"/>
</svg>
