<svg width="24" height="24" viewBox="0 0 24 24" fill="none" xmlns="http://www.w3.org/2000/svg">
<mask id="path-1-inside-1" fill="white">
<path d="M21 11V17C21 19.2091 19.2091 21 17 21H7C4.79086 21 3 19.2091 3 17V11"/>
</mask>
<path d="M23 11C23 9.89543 22.1046 9 21 9C19.8954 9 19 9.89543 19 11H23ZM5 11C5 9.89543 4.10457 9 3 9C1.89543 9 1 9.89543 1 11H5ZM19 11V17H23V11H19ZM17 19H7V23H17V19ZM5 17V11H1V17H5ZM7 19C5.89543 19 5 18.1046 5 17H1C1 20.3137 3.68629 23 7 23V19ZM19 17C19 18.1046 18.1046 19 17 19V23C20.3137 23 23 20.3137 23 17H19Z" fill="white" mask="url(#path-1-inside-1)"/>
<path d="M22 7H2C1.44772 7 1 7.44772 1 8C1 8.55228 1.44772 9 2 9H22C22.5523 9 23 8.55228 23 8C23 7.44772 22.5523 7 22 7Z" fill="white"/>
<path d="M12 19V11" stroke="white" stroke-width="2" stroke-linejoin="round"/>
<path d="M12 8H8.14286C7.57454 8 7.02949 7.73661 6.62763 7.26777C6.22576 6.79893 6 6.16304 6 5.5C6 4.83696 6.22576 4.20107 6.62763 3.73223C7.02949 3.26339 7.57454 3 8.14286 3C11.1429 3 12 8 12 8Z" stroke="white" stroke-width="2" stroke-linejoin="round"/>
<path d="M12 8H15.8571C16.4255 8 16.9705 7.73661 17.3724 7.26777C17.7742 6.79893 18 6.16304 18 5.5C18 4.83696 17.7742 4.20107 17.3724 3.73223C16.9705 3.26339 16.4255 3 15.8571 3C12.8571 3 12 8 12 8Z" stroke="white" stroke-width="2" stroke-linejoin="round"/>
</svg>
