<svg width="30" height="30" viewBox="0 0 30 30" fill="none" xmlns="http://www.w3.org/2000/svg">
<path d="M26.2941 5.20588C23.9118 2.47059 20.5588 0.617647 16.8529 0.176471C15.8824 0 15.1765 0 14.5588 0C14.4706 0 14.3824 0 14.2941 0C13.7647 0 13.3235 0.0882353 12.9706 0.0882353C12.7941 0.0882353 12.5294 0.176471 12.3529 0.176471C9.97059 0.529412 8.47059 2.38235 8.11765 4.32353C7.76471 6.35294 8.73529 8.47059 11.1176 9.35294L12.7941 9.88235L10.5 17.4706L9.70588 17.2059C9 16.9412 8.29412 17.3824 8.02941 18.0882C7.76471 18.7941 8.20588 19.5 8.91177 19.7647L9.70588 20.0294L9.35294 21.1765C9.17647 21.8824 9.52941 22.5882 10.2353 22.8529C10.9412 23.0294 11.6471 22.6765 11.9118 21.9706L12.2647 20.8235L12.6176 20.9118C12.7059 20.9118 12.7941 21 12.8824 21C13.2353 21.0882 13.6765 21.2647 14.1176 21.4412L13.7647 22.6765C13.5882 23.3824 13.9412 24.0882 14.6471 24.3529C15.3529 24.5294 16.0588 24.1765 16.3235 23.4706L16.7647 22.0588C16.9412 22.0588 17.1176 22.0588 17.2941 22.0588C18.1765 22.0588 19.0588 21.7941 19.8529 21C20.6471 20.2059 20.9118 19.1471 21 18.3529C21.0882 17.5588 20.9118 16.6765 20.6471 16.0588C20.6471 16.0588 20.6471 15.9706 20.5588 15.9706C21.0882 15.5294 21.6176 14.7353 21.7941 13.7647C22.0588 12.7059 21.9706 11.7353 21.4412 10.8529C21.0882 10.3235 20.7353 9.97059 20.2059 9.70588L20.7353 8.20588C21 7.5 20.5588 6.79412 19.8529 6.52941C19.1471 6.26471 18.4412 6.70588 18.1765 7.41176L17.7353 8.82353L16.0588 8.29412L16.5 6.88235C16.6765 6.17647 16.3235 5.47059 15.6176 5.20588C14.9118 5.02941 14.2059 5.38235 13.9412 6.08824L13.5 7.5L11.8235 6.97059C11.2941 6.79412 10.9412 6.44118 10.6765 6.08824C10.5882 5.55882 10.5882 5.20588 10.5882 4.76471C10.7647 3.88235 11.4706 3 12.7059 2.82353C12.8824 2.82353 13.0588 2.73529 13.2353 2.73529C13.5 2.73529 13.9412 2.64706 14.2941 2.64706C14.3824 2.64706 14.4706 2.64706 14.6471 2.64706C15.3529 2.64706 15.8824 2.64706 16.6765 2.73529C19.7647 3.08824 22.5 4.67647 24.4412 6.88235C26.2941 9.08824 27.4412 11.9118 27.4412 15C27.4412 21.7941 21.8824 27.3529 15.0882 27.3529C8.20588 27.3529 2.64706 21.7941 2.64706 15C2.64706 12.7059 3.26471 10.5 4.41176 8.64706L5.11765 7.58824C5.55882 6.97059 5.38235 6.17647 4.76471 5.73529C4.23529 5.29412 3.35294 5.47059 3 6.08824L2.20588 7.14706C2.20588 7.14706 2.20588 7.14706 2.20588 7.23529C0.794118 9.52941 0 12.1765 0 15C0 23.2941 6.70588 30 15 30C23.2941 30 30 23.2941 30 15C30 11.2059 28.5882 7.76471 26.2941 5.20588ZM15.2647 10.6765C16.3235 11.0294 17.3824 11.3824 18.4412 11.6471C18.9706 11.8235 19.1471 12 19.2353 12.0882C19.3235 12.1765 19.4118 12.4412 19.2353 13.0588C19.1471 13.5 18.9706 13.6765 18.8824 13.8529C18.7941 13.9412 18.7059 14.0294 18.6176 14.0294C18.5294 14.0294 18.3529 14.0294 18.2647 14.0294L14.6471 12.8824L15.2647 10.6765ZM13.8529 15.4412L17.5588 16.5882C18.1765 16.8529 18.3529 17.3824 18.3529 18.0882C18.2647 18.7941 17.9118 19.4118 17.2059 19.4118C16.7647 19.4118 16.3235 19.3235 15.5294 19.1471C14.9118 18.9706 14.2941 18.7941 13.6765 18.6176C13.4118 18.5294 13.2353 18.4412 12.9706 18.3529L13.8529 15.4412Z" fill="white"/>
</svg>
