<svg width="68" height="68" viewBox="0 0 68 68" fill="none" xmlns="http://www.w3.org/2000/svg">
<circle cx="34" cy="34" r="34" fill="#FFEAF5"/>
<path d="M30.5 43C27.9045 41.892 23.5219 38.4212 21.3307 36.6159C20.6494 36.0545 19.6167 36.2666 19.2219 37.0563C19.0786 37.3428 19.0408 37.669 19.132 37.9761C19.473 39.124 20.4993 42.1253 22.5 44.5C24.2047 46.5234 27.4789 48.0114 29.077 48.6521C29.6848 48.8957 30.334 49 30.9889 49H48C48.5523 49 49 48.5523 49 48V43.6724C49 43.2658 48.7538 42.8997 48.3773 42.7463L36.9129 38.0756C36.0999 37.7444 35.1667 38.0554 34.715 38.8083C34.2948 39.5087 34.4052 40.4052 34.9827 40.9827L36.5345 42.5345C37.1264 43.1264 36.7679 44.0852 35.9311 44.0635C34.4431 44.0249 32.3761 43.8009 30.5 43Z" stroke="#F072B4" stroke-width="2"/>
<path d="M29.3434 28.0084C29.4953 28.0084 29.6146 28.0585 29.7013 28.1588C29.7935 28.2535 29.8396 28.3816 29.8396 28.5432V33.4485C29.8396 33.61 29.7935 33.7409 29.7013 33.8412C29.6091 33.9415 29.4898 33.9916 29.3434 33.9916C29.1699 33.9916 29.0371 33.9276 28.9449 33.7994L25.9761 29.8301V33.4485C25.9761 33.61 25.9327 33.7409 25.8459 33.8412C25.7592 33.9415 25.6399 33.9916 25.488 33.9916C25.3362 33.9916 25.2169 33.9415 25.1301 33.8412C25.0434 33.7409 25 33.61 25 33.4485V28.5432C25 28.3816 25.0461 28.2535 25.1383 28.1588C25.2305 28.0585 25.3525 28.0084 25.5043 28.0084C25.6724 28.0084 25.8025 28.0724 25.8947 28.2006L28.8554 32.1532V28.5432C28.8554 28.3816 28.8988 28.2535 28.9856 28.1588C29.0777 28.0585 29.197 28.0084 29.3434 28.0084Z" fill="#F072B4"/>
<path d="M31.5808 33.9415C31.4235 33.9415 31.2988 33.8969 31.2066 33.8078C31.1199 33.7187 31.0765 33.5933 31.0765 33.4318V28.5599C31.0765 28.3983 31.1199 28.273 31.2066 28.1838C31.2988 28.0947 31.4235 28.0501 31.5808 28.0501H34.5171C34.6743 28.0501 34.7964 28.0864 34.8831 28.1588C34.9699 28.2312 35.0133 28.3343 35.0133 28.468C35.0133 28.6072 34.9699 28.7159 34.8831 28.7939C34.7964 28.8663 34.6743 28.9025 34.5171 28.9025H32.1014V30.5237H34.3544C34.5117 30.5237 34.6337 30.5599 34.7204 30.6323C34.8072 30.7047 34.8506 30.8106 34.8506 30.9499C34.8506 31.0836 34.8072 31.1866 34.7204 31.2591C34.6337 31.3315 34.5117 31.3677 34.3544 31.3677H32.1014V33.0891H34.5171C34.6743 33.0891 34.7964 33.1281 34.8831 33.2061C34.9699 33.2786 35.0133 33.3844 35.0133 33.5237C35.0133 33.6574 34.9699 33.7604 34.8831 33.8329C34.7964 33.9053 34.6743 33.9415 34.5171 33.9415H31.5808Z" fill="#F072B4"/>
<path d="M43.0565 28.3343C43.0944 28.2228 43.1541 28.1393 43.2354 28.0836C43.3222 28.0279 43.4171 28 43.5201 28C43.6502 28 43.7614 28.0418 43.8536 28.1253C43.9512 28.2089 44 28.3203 44 28.4596C44 28.5097 43.9864 28.5822 43.9593 28.6769L42.2106 33.649C42.1672 33.7604 42.094 33.8468 41.991 33.9081C41.8934 33.9694 41.7849 34 41.6656 34C41.5463 34 41.4351 33.9694 41.3321 33.9081C41.2291 33.8468 41.1586 33.7604 41.1206 33.649L39.7704 29.7131L38.3958 33.649C38.3524 33.7604 38.2792 33.8468 38.1762 33.9081C38.0786 33.9694 37.9702 34 37.8509 34C37.7316 34 37.6204 33.9694 37.5174 33.9081C37.4198 33.8468 37.352 33.7604 37.314 33.649L35.5653 28.6769C35.5382 28.5933 35.5246 28.5209 35.5246 28.4596C35.5246 28.3203 35.5734 28.2089 35.671 28.1253C35.774 28.0418 35.8933 28 36.0289 28C36.1373 28 36.235 28.0279 36.3217 28.0836C36.4085 28.1393 36.4708 28.2228 36.5088 28.3343L37.8915 32.4206L39.3149 28.3593C39.3529 28.2479 39.4153 28.1616 39.502 28.1003C39.5888 28.0334 39.6837 28 39.7867 28C39.8897 28 39.9846 28.0334 40.0714 28.1003C40.1636 28.1616 40.2286 28.2507 40.2666 28.3677L41.6493 32.4708L43.0565 28.3343Z" fill="#F072B4"/>
<path d="M21 30.9872C21 23.8146 26.8203 18 34 18C41.1797 18 47 23.8146 47 30.9872C47 34.4876 45.6138 37.6645 43.36 40" stroke="#F072B4" stroke-width="2" stroke-linecap="round"/>
</svg>
