<svg width="14" height="12" viewBox="0 0 14 12" fill="none" xmlns="http://www.w3.org/2000/svg">
<g clip-path="url(#clip0)">
<path fill-rule="evenodd" clip-rule="evenodd" d="M9.14656 1.1967C9.34183 1.00144 9.65841 1.00144 9.85367 1.1967L13.8034 5.14645C13.9987 5.34171 13.9987 5.65829 13.8034 5.85355L9.85367 9.8033C9.65841 9.99856 9.34183 9.99856 9.14656 9.8033C8.9513 9.60804 8.9513 9.29146 9.14656 9.09619L12.7428 5.5L9.14656 1.90381C8.9513 1.70854 8.9513 1.39196 9.14656 1.1967Z" fill="#B8BDC7"/>
<path fill-rule="evenodd" clip-rule="evenodd" d="M13 5.5C13 5.22386 12.7761 5 12.5 5L5.5 5C2.46243 5 -1.54632e-07 7.46244 -2.18556e-08 10.5C-9.78511e-09 10.7761 0.223858 11 0.5 11C0.776142 11 1 10.7761 1 10.5C1 8.01472 3.01472 6 5.5 6L12.5 6C12.7761 6 13 5.77614 13 5.5Z" fill="#B8BDC7"/>
</g>
<defs>
<clipPath id="clip0">
<rect width="14" height="12" fill="white"/>
</clipPath>
</defs>
</svg>
