<svg width="68" height="68" viewBox="0 0 68 68" fill="none" xmlns="http://www.w3.org/2000/svg">
<circle cx="34" cy="34" r="34" fill="#F2EBFC"/>
<g clip-path="url(#clip0)">
<path d="M21.1315 41.0128L20.3612 43.727C20.1801 44.3654 20.6596 45 21.3233 45H42.5525C43.2519 45 43.7353 44.3003 43.4877 43.6461L42.427 40.8426C42.067 39.8912 41.3582 39.1128 40.4446 38.6655L37.2412 37.0972C35.8696 36.4257 35 35.0318 35 33.5046V33.4721C35 33.1616 35.0723 32.8554 35.2111 32.5777L35.8509 31.2981C35.9477 31.1046 36.1046 30.9477 36.2981 30.8509L37.4472 30.2764C37.786 30.107 38 29.7607 38 29.382V27.4142C38 27.149 37.8946 26.8946 37.7071 26.7071L37.2929 26.2929C37.1054 26.1054 37 25.851 37 25.5858V24.2C37 22.4327 35.5673 21 33.8 21C33.3582 21 33 20.6418 33 20.2V20C33 19.176 32.0592 18.7056 31.4 19.2L29.1881 20.8589C29.066 20.9505 28.9175 21 28.7648 21C27.1769 21 25.9016 22.3097 25.9439 23.8971L25.9885 25.5702C25.9959 25.8446 25.8901 26.1099 25.696 26.304L25.2929 26.7071C25.1054 26.8946 25 27.149 25 27.4142V29.382C25 29.7607 25.214 30.107 25.5528 30.2764L26.7019 30.8509C26.8954 30.9477 27.0523 31.1046 27.1491 31.2981L27.7889 32.5777C27.9277 32.8554 28 33.1616 28 33.4721V33.5828C28 35.0691 27.1759 36.4329 25.8601 37.124L23.1194 38.5636C22.1493 39.0732 21.4306 39.9585 21.1315 41.0128Z" stroke="#773ACE" stroke-width="2"/>
<line x1="41" y1="33" x2="47" y2="33" stroke="#773ACE" stroke-width="2" stroke-linecap="round"/>
<line x1="44" y1="36" x2="44" y2="30" stroke="#773ACE" stroke-width="2" stroke-linecap="round"/>
</g>
<defs>
<clipPath id="clip0">
<rect width="30" height="30" fill="white" transform="translate(19 18)"/>
</clipPath>
</defs>
</svg>
